<svg xmlns="http://www.w3.org/2000/svg" width="800" height="1000" viewBox="0 0 800 1000">
  <rect width="800" height="1000" fill="black"/>
  <text x="400" y="100" font-family="Arial, sans-serif" font-size="60" font-weight="bold" text-anchor="middle" fill="white">Unlock More</text>
  <text x="400" y="180" font-family="Arial, sans-serif" font-size="60" font-weight="bold" text-anchor="middle" fill="white">Revenue With ShiFi</text>
  <text x="400" y="260" font-family="Arial, sans-serif" font-size="60" font-weight="bold" text-anchor="middle" fill="white">Financing</text>
  
  <!-- Left phone -->
  <rect x="120" y="380" width="220" height="450" rx="30" ry="30" fill="#222" stroke="#555" stroke-width="10"/>
  <rect x="140" y="420" width="180" height="350" rx="5" ry="5" fill="#333"/>
  <text x="150" y="450" font-family="Arial, sans-serif" font-size="20" fill="white">Welcome SkyEng</text>
  <text x="150" y="480" font-family="Arial, sans-serif" font-size="14" fill="#999">Total Contracts To Date:</text>
  <text x="290" y="480" font-family="Arial, sans-serif" font-size="14" fill="white">25</text>
  <text x="150" y="510" font-family="Arial, sans-serif" font-size="14" fill="#999">Total Funded Volume:</text>
  <text x="290" y="510" font-family="Arial, sans-serif" font-size="14" fill="white">$210,000</text>
  
  <rect x="140" y="550" width="180" height="60" rx="5" ry="5" fill="#222"/>
  <text x="150" y="570" font-family="Arial, sans-serif" font-size="14" fill="#999">Average Contract Value:</text>
  <text x="150" y="595" font-family="Arial, sans-serif" font-size="16" font-weight="bold" fill="white">$12,000</text>
  <rect x="150" y="605" width="160" height="5" fill="#0066ff"/>
  
  <rect x="140" y="630" width="180" height="90" rx="5" ry="5" fill="#222"/>
  <text x="150" y="650" font-family="Arial, sans-serif" font-size="14" fill="#999">Average Tier:</text>
  <text x="150" y="675" font-family="Arial, sans-serif" font-size="16" font-weight="bold" fill="white">Tier 1</text>
  <text x="150" y="700" font-family="Arial, sans-serif" font-size="14" fill="#999">Average Funded Amount:</text>
  <text x="150" y="715" font-family="Arial, sans-serif" font-size="16" font-weight="bold" fill="white">$8,400</text>
  
  <!-- Right phone -->
  <rect x="380" y="350" width="270" height="550" rx="30" ry="30" fill="#222" stroke="#555" stroke-width="10"/>
  <rect x="400" y="390" width="230" height="470" rx="5" ry="5" fill="#111"/>
  <circle cx="430" cy="420" r="20" fill="white" stroke="#222" stroke-width="2"/>
  <text x="430" y="425" font-family="Arial, sans-serif" font-size="16" text-anchor="middle" fill="black">S</text>
  <text x="460" y="425" font-family="Arial, sans-serif" font-size="24" font-weight="bold" fill="white">ShiFi</text>
  
  <text x="420" y="480" font-family="Arial, sans-serif" font-size="28" font-weight="bold" fill="white">Learn now,</text>
  <text x="420" y="520" font-family="Arial, sans-serif" font-size="28" font-weight="bold" fill="white">Pay Later!</text>
  
  <text x="420" y="560" font-family="Arial, sans-serif" font-size="18" fill="#999">You've been pre-qualified for</text>
  <text x="420" y="590" font-family="Arial, sans-serif" font-size="22" font-weight="bold" fill="white">$8,000</text>
  <text x="500" y="590" font-family="Arial, sans-serif" font-size="18" fill="#999">for coaching service at</text>
  <text x="420" y="620" font-family="Arial, sans-serif" font-size="20" font-weight="bold" fill="white">SkyEng</text>
  <text x="500" y="620" font-family="Arial, sans-serif" font-size="18" fill="#999">. Please choose one:</text>
  
  <!-- First option -->
  <rect x="410" y="640" width="210" height="100" rx="10" ry="10" fill="#222"/>
  <text x="420" y="665" font-family="Arial, sans-serif" font-size="14" fill="#999">Monthly Payment:</text>
  <text x="550" y="665" font-family="Arial, sans-serif" font-size="14" fill="#999">Purchase Total:</text>
  <text x="420" y="685" font-family="Arial, sans-serif" font-size="16" font-weight="bold" fill="white">$301.77</text>
  <text x="550" y="685" font-family="Arial, sans-serif" font-size="16" font-weight="bold" fill="white">$8,000</text>
  <text x="420" y="705" font-family="Arial, sans-serif" font-size="14" fill="#999">APR:</text>
  <text x="550" y="705" font-family="Arial, sans-serif" font-size="14" fill="#999">Loan Term:</text>
  <text x="420" y="725" font-family="Arial, sans-serif" font-size="16" font-weight="bold" fill="white">24.9%</text>
  <text x="550" y="725" font-family="Arial, sans-serif" font-size="16" font-weight="bold" fill="white">36 Months</text>
  
  <rect x="410" y="750" width="210" height="40" rx="5" ry="5" fill="#0066ff"/>
  <text x="515" y="775" font-family="Arial, sans-serif" font-size="16" font-weight="bold" text-anchor="middle" fill="white">Apply</text>
  
  <!-- Second option -->
  <rect x="410" y="800" width="210" height="60" rx="10" ry="10" fill="#222"/>
  <text x="420" y="820" font-family="Arial, sans-serif" font-size="14" fill="#999">Monthly Payment:</text>
  <text x="550" y="820" font-family="Arial, sans-serif" font-size="14" fill="#999">Purchase Total:</text>
  <text x="420" y="840" font-family="Arial, sans-serif" font-size="16" font-weight="bold" fill="white">$251.57</text>
  <text x="550" y="840" font-family="Arial, sans-serif" font-size="16" font-weight="bold" fill="white">$8,000</text>
</svg>